<?xml version="1.0" encoding="utf-8"?>
<!-- Generator: Adobe Illustrator 19.1.0, SVG Export Plug-In . SVG Version: 6.00 Build 0)  -->
<!DOCTYPE svg PUBLIC "-//W3C//DTD SVG 1.1//EN" "http://www.w3.org/Graphics/SVG/1.1/DTD/svg11.dtd">
<svg version="1.1" id="Laag_1" xmlns="http://www.w3.org/2000/svg" xmlns:xlink="http://www.w3.org/1999/xlink" x="0px" y="0px"
	 viewBox="0 0 687.5 310.4" enable-background="new 0 0 687.5 310.4" xml:space="preserve">
<polygon fill="#B9CE00" points="388.4,177.8 445.1,177.8 445.1,121.1 388.7,121.1 "/>
<rect x="388.4" y="7.7" fill="#B9CE00" width="56.7" height="56.7"/>
<path fill="#F9B000" d="M246,6.3c-47.4,0-85.7,38.4-85.7,85.7s38.4,85.7,85.7,85.7h85.7V92C331.8,44.7,293.4,6.3,246,6.3z
	 M274.6,120.6H246c0,0,0,0,0,0c-15.8,0-28.6-12.8-28.6-28.6c0-15.8,12.8-28.6,28.6-28.6c15.8,0,28.6,12.8,28.6,28.6V120.6z"/>
<rect x="634.4" y="321.2" fill="none" width="12.5" height="0"/>
<g>
	<path fill="#00AACA" d="M39.2,252h-4.6c-0.5,0-0.8-0.4-0.8-0.8v-0.7c-1.6,1.1-3.2,1.8-5.7,1.8c-3.6,0-7-1.7-7-7.1v-0.4
		c0-4.8,3.1-6.9,10.1-6.9h2.2v-1.5c0-2.3-1.1-2.8-3.1-2.8c-2.6,0-5.5,0.2-6.8,0.3h-0.2c-0.4,0-0.7-0.2-0.7-0.7v-3.3
		c0-0.4,0.3-0.8,0.8-0.9c1.5-0.4,4.4-0.9,7.1-0.9c5.9,0,9.6,2.4,9.6,8.4v14.6C40,251.6,39.6,252,39.2,252z M33.5,241.9h-2.3
		c-2.9,0-3.6,1-3.6,3v0.4c0,1.7,0.9,2,2.6,2c1.2,0,2.4-0.4,3.4-0.9V241.9z"/>
	<path fill="#00AACA" d="M57.2,233.6h-0.3c-2,0-3.8,0.6-5.3,1.4v16c0,0.5-0.4,0.9-0.8,0.9h-5c-0.5,0-0.9-0.4-0.9-0.9v-21.8
		c0-0.5,0.4-0.8,0.8-0.8h4.9c0.5,0,0.8,0.4,0.8,0.8v0.8c1.5-1.3,3.6-2,5.5-2c0.5,0,0.8,0.4,0.8,0.8v3.9
		C57.8,233.2,57.5,233.6,57.2,233.6z"/>
	<path fill="#00AACA" d="M73.9,252c-1.2,0.2-2,0.3-3.2,0.3c-4.5,0-6.9-1.2-6.9-7v-11.9l-3.3-0.5c-0.5-0.1-0.9-0.4-0.9-0.9v-2.7
		c0-0.5,0.4-0.9,0.9-0.9h3.3v-3.4c0-0.5,0.4-0.7,0.8-0.8l5-0.9c0,0,0.1,0,0.1,0c0.4,0,0.7,0.3,0.7,0.7v4.3h3.4
		c0.5,0,0.8,0.4,0.8,0.8v3.3c0,0.5-0.4,0.8-0.8,0.8h-3.4v11.9c0,1.6,0.1,1.9,1.4,1.9h2c0.5,0,0.9,0.2,0.9,0.7v3.2
		C74.7,251.6,74.4,251.9,73.9,252z"/>
	<path fill="#00AACA" d="M97.4,242.3H84.3v0.1c0,2.3,1,4.5,4.2,4.5c2.6,0,6.2-0.2,7.9-0.4c0,0,0.1,0,0.1,0c0.5,0,0.8,0.2,0.8,0.7
		v3.1c0,0.7-0.2,0.9-0.9,1.1c-2.6,0.7-4.8,1-8.4,1c-5,0-10.3-2.6-10.3-10.5v-2.9c0-6.6,3.9-10.8,10.4-10.8c6.7,0,10.1,4.6,10.1,10.8
		v2.4C98.3,241.9,98,242.3,97.4,242.3z M91.8,238c0-3-1.4-4.6-3.7-4.6c-2.3,0-3.8,1.6-3.8,4.6v0.2h7.5V238z"/>
	<path fill="#00AACA" d="M122.4,229.4l-5.2,18.6c-1,3.6-3.5,4.3-5.9,4.3c-2.4,0-4.9-0.7-5.9-4.3l-5.1-18.6c0-0.1,0-0.2,0-0.2
		c0-0.4,0.3-0.7,0.7-0.7h5.4c0.4,0,0.7,0.4,0.9,0.9l3.5,16.1c0.1,0.6,0.3,0.9,0.6,0.9c0.3,0,0.5-0.2,0.7-0.9l3.5-16.1
		c0.1-0.5,0.5-0.9,0.9-0.9h5.4c0.4,0,0.7,0.3,0.7,0.7C122.4,229.3,122.4,229.3,122.4,229.4z"/>
	<path fill="#00AACA" d="M144,242.3h-13.1v0.1c0,2.3,1,4.5,4.2,4.5c2.6,0,6.2-0.2,7.9-0.4c0,0,0.1,0,0.1,0c0.5,0,0.8,0.2,0.8,0.7
		v3.1c0,0.7-0.2,0.9-0.9,1.1c-2.6,0.7-4.8,1-8.4,1c-5,0-10.3-2.6-10.3-10.5v-2.9c0-6.6,3.9-10.8,10.4-10.8c6.7,0,10.1,4.6,10.1,10.8
		v2.4C144.8,241.9,144.5,242.3,144,242.3z M138.3,238c0-3-1.4-4.6-3.7-4.6c-2.3,0-3.8,1.6-3.8,4.6v0.2h7.5V238z"/>
	<path fill="#00AACA" d="M155,252h-5c-0.5,0-0.9-0.4-0.9-0.9v-29.8c0-0.5,0.4-0.8,0.9-0.8h5c0.5,0,0.8,0.4,0.8,0.8v29.8
		C155.8,251.6,155.4,252,155,252z"/>
	<path fill="#00AACA" d="M179,251.3c-2.3,0.6-5.6,1.1-8.7,1.1c-6.6,0-10.3-3.9-10.3-10.5v-3.2c0-6.4,3.4-10.5,10.3-10.5
		c0.8,0,2.2,0.1,3.4,0.3v-7.1c0-0.5,0.4-0.8,0.8-0.8h5c0.5,0,0.9,0.4,0.9,0.8v28.7C180.2,250.7,180.1,251,179,251.3z M173.6,233.9
		c-1-0.1-2.4-0.2-3.4-0.2c-2.9,0-3.6,2.1-3.6,5v3.2c0,2.9,0.7,5,3.6,5c1.4,0,2.6-0.1,3.4-0.2V233.9z"/>
	<path fill="#00AACA" d="M204.2,242.3h-13.1v0.1c0,2.3,1,4.5,4.2,4.5c2.6,0,6.2-0.2,7.9-0.4c0,0,0.1,0,0.1,0c0.5,0,0.8,0.2,0.8,0.7
		v3.1c0,0.7-0.2,0.9-0.9,1.1c-2.6,0.7-4.8,1-8.4,1c-5,0-10.3-2.6-10.3-10.5v-2.9c0-6.6,3.9-10.8,10.4-10.8c6.7,0,10.1,4.6,10.1,10.8
		v2.4C205.1,241.9,204.7,242.3,204.2,242.3z M198.6,238c0-3-1.4-4.6-3.7-4.6c-2.3,0-3.8,1.6-3.8,4.6v0.2h7.5V238z"/>
	<path fill="#00AACA" d="M236.8,252h-2c-0.5,0-0.8-0.4-0.8-0.8v-0.8c-2.3,1.3-4.1,1.9-6.5,1.9c-4.9,0-7.1-3.1-7.1-8.5v-13.5
		c0-0.5,0.4-0.8,0.8-0.8h2c0.5,0,0.8,0.4,0.8,0.8v13.5c0,4.1,1.4,5.4,4.5,5.4c1.7,0,3.6-0.7,5.5-1.6v-17.3c0-0.4,0.4-0.8,0.8-0.8h2
		c0.4,0,0.8,0.4,0.8,0.8v20.9C237.6,251.6,237.3,252,236.8,252z"/>
	<path fill="#00AACA" d="M259.6,252h-2c-0.5,0-0.8-0.4-0.8-0.8v-13.5c0-4.1-1.4-5.4-4.5-5.4c-1.7,0-3.6,0.7-5.5,1.6v17.3
		c0,0.4-0.4,0.8-0.8,0.8h-2c-0.4,0-0.8-0.4-0.8-0.8v-20.9c0-0.5,0.3-0.8,0.8-0.8h2.1c0.5,0,0.8,0.4,0.8,0.8v0.8
		c2.3-1.3,4.1-1.9,6.5-1.9c4.9,0,7.1,3.1,7.1,8.5v13.5C260.4,251.6,260.1,252,259.6,252z"/>
	<path fill="#00AACA" d="M269.3,225.8h-2.1c-0.5,0-0.8-0.4-0.8-0.8v-3.3c0-0.5,0.4-0.8,0.8-0.8h2.1c0.5,0,0.8,0.4,0.8,0.8v3.3
		C270.2,225.4,269.8,225.8,269.3,225.8z M269.3,252h-2c-0.5,0-0.8-0.4-0.8-0.8v-20.9c0-0.5,0.4-0.8,0.8-0.8h2c0.5,0,0.8,0.4,0.8,0.8
		v20.9C270.1,251.6,269.7,252,269.3,252z"/>
	<path fill="#00AACA" d="M293.4,230.4l-5.5,19.5c-0.5,1.8-1.9,2.3-3.7,2.3c-1.8,0-3.2-0.5-3.7-2.3l-5.5-19.5c0-0.1,0-0.2,0-0.3
		c0-0.4,0.2-0.7,0.7-0.7h2.3c0.3,0,0.6,0.2,0.8,0.8l4.7,17.9c0.2,1,0.5,1.2,0.9,1.2c0.4,0,0.6-0.2,0.9-1.2l4.7-17.9
		c0.2-0.5,0.5-0.8,0.8-0.8h2.3c0.4,0,0.7,0.3,0.7,0.7C293.5,230.2,293.5,230.3,293.4,230.4z"/>
	<path fill="#00AACA" d="M313.7,241.8h-13.7v0.6c0,4.9,1.9,6.7,5.7,6.7c2.4,0,5.4-0.2,7.3-0.5c0.1,0,0.1,0,0.2,0
		c0.3,0,0.7,0.2,0.7,0.6v1.4c0,0.5-0.2,0.8-0.8,0.9c-2.3,0.5-4.6,0.7-7.3,0.7c-4.7,0-9.3-2.2-9.3-9.8v-3.7c0-5.9,3.2-9.6,9.1-9.6
		c6,0,9,3.8,9,9.6v2.2C314.4,241.5,314.2,241.8,313.7,241.8z M310.8,238.7c0-4.6-1.8-6.4-5.4-6.4c-3.5,0-5.5,2-5.5,6.4v0.4h10.9
		V238.7z"/>
	<path fill="#00AACA" d="M328.6,232.3c-1.9,0-3.6,0.5-5.7,1.7v17.2c0,0.4-0.4,0.8-0.8,0.8h-2c-0.4,0-0.8-0.4-0.8-0.8v-20.9
		c0-0.5,0.3-0.8,0.8-0.8h1.9c0.5,0,0.8,0.4,0.8,0.8v0.9c2.1-1.4,3.9-2,5.8-2c0.6,0,0.9,0.2,0.9,0.7v1.7
		C329.5,232,329.2,232.3,328.6,232.3z"/>
	<path fill="#00AACA" d="M340,252.3c-1.5,0-4.5-0.1-6.5-0.6c-0.5-0.1-0.9-0.4-0.9-0.8v-1.4c0-0.4,0.3-0.6,0.7-0.6c0.1,0,0.1,0,0.2,0
		c2,0.2,5,0.5,6.4,0.5c2.7,0,4.1-0.7,4.1-2.9c0-1.2-0.7-2-3.1-3.4l-4.1-2.5c-2.5-1.5-4.2-3.3-4.2-5.9c0-4.3,3.2-5.5,7.4-5.5
		c2.3,0,4.5,0.2,6.4,0.5c0.5,0.1,0.8,0.4,0.8,0.8v1.4c0,0.5-0.3,0.7-0.7,0.7c0,0-0.1,0-0.1,0c-1.4-0.1-4.1-0.3-6.4-0.3
		s-3.8,0.3-3.8,2.4c0,1.2,0.9,2,2.8,3.1l4.1,2.4c3.4,2,4.5,3.8,4.5,6.2C347.6,250.5,344.6,252.3,340,252.3z"/>
	<path fill="#00AACA" d="M355.8,225.8h-2.1c-0.5,0-0.8-0.4-0.8-0.8v-3.3c0-0.5,0.4-0.8,0.8-0.8h2.1c0.5,0,0.8,0.4,0.8,0.8v3.3
		C356.6,225.4,356.3,225.8,355.8,225.8z M355.7,252h-2c-0.5,0-0.8-0.4-0.8-0.8v-20.9c0-0.5,0.4-0.8,0.8-0.8h2c0.5,0,0.8,0.4,0.8,0.8
		v20.9C356.5,251.6,356.2,252,355.7,252z"/>
	<path fill="#00AACA" d="M373.8,252.1c-0.8,0.1-1.9,0.2-2.7,0.2c-3.8,0-5.6-1-5.6-5.5v-14.3l-4-0.5c-0.5,0-0.8-0.3-0.8-0.7v-1.1
		c0-0.5,0.3-0.7,0.8-0.7h4v-4c0-0.4,0.3-0.7,0.7-0.8l2.1-0.3c0,0,0.1,0,0.1,0c0.3,0,0.6,0.3,0.6,0.7v4.5h4.4c0.5,0,0.8,0.4,0.8,0.8
		v1.4c0,0.5-0.4,0.8-0.8,0.8h-4.4v14.3c0,2.3,0.6,2.6,2.2,2.6h2.3c0.6,0,0.9,0.2,0.9,0.6v1.4C374.6,251.7,374.4,252,373.8,252.1z"/>
	<path fill="#00AACA" d="M395.9,230.4l-6.8,23.6c-1.3,4.4-2.8,6.1-7.5,6.1c-1.1,0-2.6-0.2-3.4-0.4c-0.5-0.1-0.9-0.2-0.9-0.7v-1.5
		c0-0.5,0.3-0.7,0.8-0.7c0,0,0.1,0,0.1,0c0.9,0.1,2.7,0.2,3.7,0.2c2.3,0,3.4-0.6,4.1-3.5l0.4-1.7h-0.6c-1.2,0-2.3-0.3-3-2.8
		l-5.5-18.7c0-0.1,0-0.2,0-0.3c0-0.4,0.2-0.7,0.7-0.7h2.3c0.3,0,0.6,0.3,0.7,0.7l4.8,17.8c0.2,0.8,0.5,0.9,0.8,0.9h0.7l5-18.7
		c0.1-0.3,0.4-0.6,0.8-0.6h2.3c0.4,0,0.7,0.3,0.7,0.7C395.9,230.2,395.9,230.3,395.9,230.4z"/>
	<path fill="#00AACA" d="M423.5,251.8c-1.4,0.2-3.2,0.5-5.1,0.5c-5.6,0-8.7-3.9-8.7-10v-3.2c0-6,3.1-10,8.7-10
		c1.9,0,3.8,0.2,5.1,0.5c0.7,0.1,0.8,0.3,0.8,0.9v1.5c0,0.4-0.3,0.6-0.7,0.6c-0.1,0-0.1,0-0.2,0c-1.8-0.2-3.1-0.3-5.1-0.3
		c-3.3,0-5.1,2.2-5.1,6.8v3.2c0,4.6,1.8,6.8,5.1,6.8c2,0,3.3-0.1,5.1-0.3c0,0,0.1,0,0.2,0c0.4,0,0.7,0.2,0.7,0.6v1.5
		C424.4,251.4,424.2,251.7,423.5,251.8z"/>
	<path fill="#00AACA" d="M435.8,252.3c-6,0-9.1-4-9.1-10v-3.1c0-6,3.1-10,9.1-10c6,0,9.1,4,9.1,10v3.1
		C445,248.3,441.9,252.3,435.8,252.3z M441.4,239.1c0-4.2-1.7-6.8-5.5-6.8c-3.8,0-5.5,2.6-5.5,6.8v3.1c0,4.2,1.6,6.8,5.5,6.8
		c3.8,0,5.5-2.6,5.5-6.8V239.1z"/>
	<path fill="#00AACA" d="M453.1,252H451c-0.4,0-0.7-0.4-0.7-0.8v-29.2c0-0.4,0.3-0.8,0.7-0.8h2.1c0.4,0,0.7,0.3,0.7,0.8v29.2
		C453.8,251.6,453.6,252,453.1,252z"/>
	<path fill="#00AACA" d="M463.1,252H461c-0.4,0-0.7-0.4-0.7-0.8v-29.2c0-0.4,0.3-0.8,0.7-0.8h2.1c0.4,0,0.7,0.3,0.7,0.8v29.2
		C463.8,251.6,463.6,252,463.1,252z"/>
	<path fill="#00AACA" d="M486.4,241.8h-13.7v0.6c0,4.9,1.9,6.7,5.7,6.7c2.4,0,5.4-0.2,7.3-0.5c0.1,0,0.1,0,0.2,0
		c0.3,0,0.7,0.2,0.7,0.6v1.4c0,0.5-0.2,0.8-0.8,0.9c-2.3,0.5-4.6,0.7-7.3,0.7c-4.7,0-9.3-2.2-9.3-9.8v-3.7c0-5.9,3.2-9.6,9.1-9.6
		c6,0,9,3.8,9,9.6v2.2C487.2,241.5,486.9,241.8,486.4,241.8z M483.6,238.7c0-4.6-1.8-6.4-5.4-6.4c-3.5,0-5.5,2-5.5,6.4v0.4h10.9
		V238.7z"/>
	<path fill="#00AACA" d="M510,232.2l-1.5,0.3c0.7,0.8,1.4,2,1.4,4.2v0.3c0,4.5-2.8,7-9.1,7c-2.2,0-3.6-0.3-4.8-0.8
		c-0.7,0.3-1,0.8-1,1.4c0,0.7,0.3,1.1,1.3,1.3l6.1,1.6c4,1,7.9,2.2,7.9,6v0.3c0,3.9-2.6,6.4-9.3,6.4c-6.5,0-9.4-2.5-9.4-6.5v-0.4
		c0-2.3,1.2-4.2,2.6-5.2l-0.3-0.1c-1.3-0.6-1.9-1.9-1.9-3.2v0c0-1.1,0.5-2.3,1.7-3c-1.3-1.2-1.9-2.7-1.9-4.8v-0.3
		c0-3.6,2-7.3,9.1-7.3h9c0.5,0,0.9,0.4,0.9,0.9v1.1C510.8,231.9,510.5,232.1,510,232.2z M506.7,253.5c0-1.6-1.3-2.3-5-3.2l-4.6-1.2
		c-1.2,1-2,2-2,4.2v0.4c0,2.3,1.4,3.7,5.9,3.7c4.7,0,5.7-1.3,5.7-3.6V253.5z M506.4,236.7c0-2.5-1.1-4.4-5.5-4.4
		c-4.6,0-5.5,2.1-5.5,4.4v0.3c0,1.8,0.8,4.2,5.5,4.2c4.4,0,5.5-1.7,5.5-4.2V236.7z"/>
	<path fill="#00AACA" d="M531.7,241.8h-13.7v0.6c0,4.9,1.9,6.7,5.7,6.7c2.4,0,5.4-0.2,7.3-0.5c0.1,0,0.1,0,0.2,0
		c0.3,0,0.7,0.2,0.7,0.6v1.4c0,0.5-0.2,0.8-0.8,0.9c-2.3,0.5-4.6,0.7-7.3,0.7c-4.7,0-9.3-2.2-9.3-9.8v-3.7c0-5.9,3.2-9.6,9.1-9.6
		c6,0,9,3.8,9,9.6v2.2C532.4,241.5,532.1,241.8,531.7,241.8z M528.8,238.7c0-4.6-1.8-6.4-5.4-6.4c-3.5,0-5.5,2-5.5,6.4v0.4h10.9
		V238.7z"/>
	<path fill="#00AACA" d="M565.4,232.2l-1.5,0.3c0.7,0.8,1.4,2,1.4,4.2v0.3c0,4.5-2.8,7-9.1,7c-2.2,0-3.6-0.3-4.8-0.8
		c-0.7,0.3-1,0.8-1,1.4c0,0.7,0.3,1.1,1.3,1.3l6.1,1.6c4,1,7.9,2.2,7.9,6v0.3c0,3.9-2.6,6.4-9.3,6.4c-6.5,0-9.4-2.5-9.4-6.5v-0.4
		c0-2.3,1.2-4.2,2.6-5.2l-0.3-0.1c-1.3-0.6-1.9-1.9-1.9-3.2v0c0-1.1,0.5-2.3,1.7-3c-1.3-1.2-1.9-2.7-1.9-4.8v-0.3
		c0-3.6,2-7.3,9.1-7.3h9c0.5,0,0.9,0.4,0.9,0.9v1.1C566.1,231.9,565.8,232.1,565.4,232.2z M562.1,253.5c0-1.6-1.3-2.3-5-3.2
		l-4.6-1.2c-1.2,1-2,2-2,4.2v0.4c0,2.3,1.4,3.7,5.9,3.7c4.7,0,5.7-1.3,5.7-3.6V253.5z M561.8,236.7c0-2.5-1.1-4.4-5.5-4.4
		c-4.6,0-5.5,2.1-5.5,4.4v0.3c0,1.8,0.8,4.2,5.5,4.2c4.4,0,5.5-1.7,5.5-4.2V236.7z"/>
	<path fill="#00AACA" d="M586.8,252h-2c-0.4,0-0.8-0.4-0.8-0.8v-13.5c0-4.1-1.7-5.4-4.4-5.4c-1.3,0-3.9,0.3-5.7,1.1v17.7
		c0,0.4-0.4,0.8-0.8,0.8h-2c-0.4,0-0.8-0.4-0.8-0.8V222c0-0.5,0.3-0.8,0.8-0.8h2.1c0.5,0,0.8,0.4,0.8,0.8v8.4c2-0.9,4.5-1.3,6.3-1.3
		c4.3,0,7.4,2.5,7.4,8.5v13.5C587.7,251.6,587.3,252,586.8,252z"/>
	<path fill="#00AACA" d="M609.8,241.8h-13.7v0.6c0,4.9,1.9,6.7,5.7,6.7c2.4,0,5.4-0.2,7.3-0.5c0.1,0,0.1,0,0.2,0
		c0.3,0,0.7,0.2,0.7,0.6v1.4c0,0.5-0.2,0.8-0.8,0.9c-2.3,0.5-4.6,0.7-7.3,0.7c-4.7,0-9.3-2.2-9.3-9.8v-3.7c0-5.9,3.2-9.6,9.1-9.6
		c6,0,9,3.8,9,9.6v2.2C610.6,241.5,610.3,241.8,609.8,241.8z M607,238.7c0-4.6-1.8-6.4-5.4-6.4c-3.5,0-5.5,2-5.5,6.4v0.4H607V238.7z
		"/>
	<path fill="#00AACA" d="M632,252h-2c-0.4,0-0.8-0.4-0.8-0.8v-13.5c0-4.1-1.4-5.4-4.5-5.4c-1.7,0-3.6,0.7-5.5,1.6v17.3
		c0,0.4-0.4,0.8-0.8,0.8h-2c-0.4,0-0.8-0.4-0.8-0.8v-20.9c0-0.5,0.3-0.8,0.8-0.8h2.1c0.5,0,0.8,0.4,0.8,0.8v0.8
		c2.3-1.3,4.1-1.9,6.5-1.9c4.9,0,7.1,3.1,7.1,8.5v13.5C632.8,251.6,632.4,252,632,252z"/>
	<path fill="#00AACA" d="M648.8,252.1c-0.8,0.1-1.9,0.2-2.7,0.2c-3.8,0-5.6-1-5.6-5.5v-14.3l-4-0.5c-0.5,0-0.8-0.3-0.8-0.7v-1.1
		c0-0.5,0.3-0.7,0.8-0.7h4v-4c0-0.4,0.3-0.7,0.7-0.8l2.1-0.3c0,0,0.1,0,0.1,0c0.3,0,0.6,0.3,0.6,0.7v4.5h4.4c0.5,0,0.8,0.4,0.8,0.8
		v1.4c0,0.5-0.4,0.8-0.8,0.8h-4.4v14.3c0,2.3,0.6,2.6,2.2,2.6h2.3c0.6,0,0.9,0.2,0.9,0.6v1.4C649.5,251.7,649.3,252,648.8,252.1z"/>
</g>
<g>
	<path fill="#B2B2B2" d="M39.8,296.1H36c-0.3,0-0.5-0.3-0.5-0.6v-12.1c0-0.2-0.1-0.2-0.1-0.2c-0.1,0-0.1,0.1-0.2,0.2l-2.6,4.8
		c-0.2,0.3-0.5,0.5-0.9,0.5h-2.3c-0.4,0-0.7-0.1-0.9-0.5l-2.6-4.8c-0.1-0.1-0.1-0.2-0.2-0.2c-0.1,0-0.1,0-0.1,0.2v12.1
		c0,0.3-0.2,0.6-0.5,0.6h-3.8c-0.2,0-0.5-0.1-0.5-0.4v-20.2c0-0.6,0.4-1,1-1h2.7c0.6,0,1,0.3,1.3,0.8l4.4,8.3
		c0.1,0.2,0.2,0.4,0.3,0.4c0.1,0,0.2-0.1,0.3-0.4l4.4-8.3c0.3-0.5,0.7-0.8,1.3-0.8h2.7c0.6,0,1,0.4,1,1v20.1
		C40.3,296,40.1,296.1,39.8,296.1z"/>
	<path fill="#B2B2B2" d="M57,296c-1,0.1-2.5,0.4-5.6,0.4c-3.7,0-7-1-7-6.2v-9.6c0-5.3,3.3-6.2,7.1-6.2c3.1,0,4.6,0.2,5.6,0.4
		c0.4,0.1,0.6,0.2,0.6,0.6v2.7c0,0.3-0.3,0.6-0.6,0.6h-5.9c-1.4,0-1.9,0.5-1.9,2v2.6h7.5c0.3,0,0.6,0.3,0.6,0.6v2.8
		c0,0.3-0.3,0.6-0.6,0.6h-7.5v3.1c0,1.5,0.5,2,1.9,2H57c0.3,0,0.6,0.3,0.6,0.6v2.7C57.6,295.7,57.4,295.9,57,296z"/>
	<path fill="#B2B2B2" d="M80.3,296.1h-3.8c-0.3,0-0.5-0.3-0.5-0.6v-12.1c0-0.2-0.1-0.2-0.1-0.2c-0.1,0-0.1,0.1-0.2,0.2l-2.6,4.8
		c-0.2,0.3-0.5,0.5-0.9,0.5h-2.3c-0.4,0-0.7-0.1-0.9-0.5l-2.6-4.8c-0.1-0.1-0.1-0.2-0.2-0.2c-0.1,0-0.1,0-0.1,0.2v12.1
		c0,0.3-0.2,0.6-0.5,0.6h-3.8c-0.2,0-0.5-0.1-0.5-0.4v-20.2c0-0.6,0.4-1,1-1H65c0.6,0,1,0.3,1.3,0.8l4.4,8.3
		c0.1,0.2,0.2,0.4,0.3,0.4c0.1,0,0.2-0.1,0.3-0.4l4.4-8.3c0.3-0.5,0.7-0.8,1.3-0.8h2.7c0.6,0,1,0.4,1,1v20.1
		C80.8,296,80.6,296.1,80.3,296.1z"/>
	<path fill="#B2B2B2" d="M91.8,296.4c-1.9,0-4.2-0.1-5.3-0.3c-1.2-0.2-1.6-0.6-1.6-1.9v-17.6c0-1.3,0.4-1.7,1.5-1.9
		c1-0.1,3.3-0.3,5.2-0.3c5.5,0,9.2,1.5,9.2,6.1v0.5c0,1.9-0.9,3.5-2.4,4.3c1.5,0.8,2.6,2.3,2.6,4.3v0.4
		C100.9,295,96.8,296.4,91.8,296.4z M96,280.7c0-1.6-1-2.3-4-2.3c-0.5,0-1.8,0-2.2,0v5h3.2c2.3,0,3-1,3-2.3V280.7z M96.1,289.4
		c0-1.4-0.8-2.6-3.1-2.6h-3.2v5.4c0.5,0,2,0,2.4,0c3,0,3.9-0.9,3.9-2.6V289.4z"/>
	<path fill="#B2B2B2" d="M116.9,296c-1,0.1-2.5,0.4-5.6,0.4c-3.7,0-7-1-7-6.2v-9.6c0-5.3,3.3-6.2,7.1-6.2c3.1,0,4.6,0.2,5.6,0.4
		c0.4,0.1,0.6,0.2,0.6,0.6v2.7c0,0.3-0.3,0.6-0.6,0.6H111c-1.4,0-1.9,0.5-1.9,2v2.6h7.5c0.3,0,0.6,0.3,0.6,0.6v2.8
		c0,0.3-0.3,0.6-0.6,0.6h-7.5v3.1c0,1.5,0.5,2,1.9,2h5.9c0.3,0,0.6,0.3,0.6,0.6v2.7C117.5,295.7,117.3,295.9,116.9,296z"/>
	<path fill="#B2B2B2" d="M137.4,296.1h-4.4c-0.3,0-0.4-0.3-0.6-0.6l-3.9-7.3l-0.3,0c-0.6,0-1.5-0.1-2.1-0.1v7.4
		c0,0.3-0.3,0.6-0.6,0.6h-3.8c-0.3,0-0.6-0.3-0.6-0.6V276c0-1,0.4-1.2,1.3-1.4c1.3-0.2,3.8-0.4,5.9-0.4c4.9,0,8.7,1.7,8.7,6.8v0.4
		c0,3.1-1.6,5-3.7,5.8l4.4,8.2c0.1,0.1,0.1,0.2,0.1,0.3C137.8,295.9,137.7,296.1,137.4,296.1z M132.1,281.1c0-1.8-1.4-2.6-3.8-2.6
		c-0.4,0-1.9,0.1-2.3,0.1v5.6c0.3,0,1.7,0.1,2.1,0.1c3,0,4-0.8,4-2.8V281.1z"/>
	<path fill="#B2B2B2" d="M156.5,296.4c-4.8,0-8.6-2.6-8.6-9.3v-3.5c0-6.7,3.8-9.3,8.6-9.3c4.8,0,8.6,2.6,8.6,9.3v3.5
		C165.1,293.8,161.3,296.4,156.5,296.4z M160.1,283.6c0-3.5-1.2-5-3.6-5c-2.4,0-3.6,1.5-3.6,5v3.5c0,3.5,1.1,5,3.6,5
		c2.4,0,3.6-1.5,3.6-5V283.6z"/>
	<path fill="#B2B2B2" d="M181.3,278.5h-5.9c-1.4,0-1.9,0.5-1.9,2v2.6h7.5c0.3,0,0.6,0.3,0.6,0.6v2.8c0,0.3-0.3,0.6-0.6,0.6h-7.5v8.5
		c0,0.3-0.3,0.6-0.6,0.6h-3.8c-0.3,0-0.6-0.3-0.6-0.6v-15c0-5.3,3.3-6.2,7.1-6.2c3.1,0,4.6,0.2,5.6,0.4c0.4,0.1,0.6,0.2,0.6,0.6v2.7
		C181.8,278.3,181.6,278.5,181.3,278.5z"/>
	<path fill="#B2B2B2" d="M207.4,278.8C207.4,278.8,207.4,278.8,207.4,278.8c-1.5-0.1-3.7-0.2-6.1-0.2c-2.3,0-3.8,1.1-3.8,4.9v3.6
		c0,4,1.8,4.9,3.2,4.9c0.8,0,1.5,0,2.2-0.1v-6.7c0-0.3,0.2-0.6,0.6-0.6h3.7c0.3,0,0.6,0.3,0.6,0.6v9.7c0,0.4-0.1,0.6-0.6,0.7
		c-1.6,0.3-3.6,0.6-6.5,0.6c-3.3,0-8.3-1.9-8.3-9.2v-3.6c0-7.4,4.6-9.3,8.8-9.3c2.9,0,5,0.4,6.1,0.7c0.3,0.1,0.5,0.2,0.5,0.4v3.1
		C207.9,278.8,207.7,278.8,207.4,278.8z"/>
	<path fill="#B2B2B2" d="M228.3,296.1h-3.8c-0.3,0-0.6-0.3-0.6-0.6v-8.4h-7.2v8.4c0,0.3-0.3,0.6-0.6,0.6h-3.8
		c-0.3,0-0.6-0.3-0.6-0.6v-20.4c0-0.3,0.3-0.6,0.6-0.6h3.8c0.3,0,0.6,0.2,0.6,0.6v7.7h7.2v-7.7c0-0.3,0.3-0.6,0.6-0.6h3.8
		c0.3,0,0.6,0.2,0.6,0.6v20.4C228.9,295.8,228.6,296.1,228.3,296.1z"/>
	<path fill="#B2B2B2" d="M245.5,296c-1,0.1-2.5,0.4-5.6,0.4c-3.7,0-7-1-7-6.2v-9.6c0-5.3,3.3-6.2,7.1-6.2c3.1,0,4.6,0.2,5.6,0.4
		c0.4,0.1,0.6,0.2,0.6,0.6v2.7c0,0.3-0.3,0.6-0.6,0.6h-5.9c-1.4,0-1.9,0.5-1.9,2v2.6h7.5c0.3,0,0.6,0.3,0.6,0.6v2.8
		c0,0.3-0.3,0.6-0.6,0.6h-7.5v3.1c0,1.5,0.5,2,1.9,2h5.9c0.3,0,0.6,0.3,0.6,0.6v2.7C246.1,295.7,245.9,295.9,245.5,296z"/>
	<path fill="#B2B2B2" d="M265.7,296.1h-2.8c-0.6,0-1-0.1-1.5-0.9l-6.6-11.4c-0.1-0.2-0.2-0.2-0.3-0.2c-0.1,0-0.1,0.1-0.1,0.2v11.7
		c0,0.3-0.3,0.6-0.6,0.6h-3.4c-0.3,0-0.6-0.3-0.6-0.6v-19.9c0-0.6,0.5-1.1,1.1-1.1h2.9c0.6,0,0.9,0.3,1.2,0.9l6.9,12
		c0.1,0.2,0.1,0.2,0.2,0.2c0.1,0,0.1-0.1,0.1-0.3v-12.3c0-0.3,0.3-0.6,0.6-0.6h3.4c0.3,0,0.6,0.2,0.6,0.6V295
		C266.9,295.6,266.3,296.1,265.7,296.1z"/>
	<path fill="#B2B2B2" d="M283.8,278.6h-4.7v16.9c0,0.3-0.3,0.6-0.6,0.6h-3.8c-0.3,0-0.6-0.3-0.6-0.6v-16.9h-4.7
		c-0.3,0-0.6-0.2-0.6-0.6v-3c0-0.3,0.3-0.6,0.6-0.6h14.4c0.3,0,0.6,0.2,0.6,0.6v3C284.4,278.4,284.1,278.6,283.8,278.6z"/>
	<path fill="#B2B2B2" d="M303,296.4c-4.6,0-8.4-1.7-8.4-8.4v-12.9c0-0.3,0.3-0.6,0.6-0.6h3.8c0.3,0,0.6,0.2,0.6,0.6V288
		c0,3,0.8,4.2,3.4,4.2c2.6,0,3.4-1.2,3.4-4.2v-12.9c0-0.3,0.3-0.6,0.6-0.6h3.8c0.3,0,0.6,0.2,0.6,0.6V288
		C311.4,294.6,307.6,296.4,303,296.4z"/>
	<path fill="#B2B2B2" d="M331.3,296.1h-2.8c-0.6,0-1-0.1-1.5-0.9l-6.6-11.4c-0.1-0.2-0.2-0.2-0.3-0.2c-0.1,0-0.1,0.1-0.1,0.2v11.7
		c0,0.3-0.3,0.6-0.6,0.6h-3.4c-0.3,0-0.6-0.3-0.6-0.6v-19.9c0-0.6,0.5-1.1,1.1-1.1h2.9c0.6,0,0.9,0.3,1.2,0.9l6.9,12
		c0.1,0.2,0.1,0.2,0.2,0.2c0.1,0,0.1-0.1,0.1-0.3v-12.3c0-0.3,0.3-0.6,0.6-0.6h3.4c0.3,0,0.6,0.2,0.6,0.6V295
		C332.5,295.6,331.9,296.1,331.3,296.1z"/>
	<path fill="#B2B2B2" d="M340.9,296.1H337c-0.3,0-0.5-0.3-0.5-0.6v-20.4c0-0.3,0.2-0.6,0.5-0.6h3.9c0.3,0,0.6,0.2,0.6,0.6v20.4
		C341.5,295.8,341.2,296.1,340.9,296.1z"/>
	<path fill="#B2B2B2" d="M362.6,275.1l-4.3,18c-0.7,2.8-2.8,3.2-4.8,3.2c-2,0-4.1-0.4-4.8-3.2l-4.3-18c0-0.1,0-0.1,0-0.1
		c0-0.3,0.2-0.5,0.5-0.5h4c0.3,0,0.5,0.2,0.6,0.5l3.6,16.7c0.1,0.3,0.1,0.4,0.4,0.4c0.3,0,0.3-0.1,0.4-0.4l3.6-16.7
		c0.1-0.3,0.3-0.5,0.6-0.5h4.1c0.3,0,0.5,0.2,0.5,0.5C362.6,275,362.6,275.1,362.6,275.1z"/>
	<path fill="#B2B2B2" d="M377.1,296c-1,0.1-2.5,0.4-5.6,0.4c-3.7,0-7.1-1-7.1-6.2v-9.6c0-5.3,3.3-6.2,7.1-6.2c3.1,0,4.6,0.2,5.6,0.4
		c0.4,0.1,0.6,0.2,0.6,0.6v2.7c0,0.3-0.3,0.6-0.6,0.6h-5.9c-1.4,0-1.9,0.5-1.9,2v2.6h7.5c0.3,0,0.6,0.3,0.6,0.6v2.8
		c0,0.3-0.3,0.6-0.6,0.6h-7.5v3.1c0,1.5,0.5,2,1.9,2h5.9c0.3,0,0.6,0.3,0.6,0.6v2.7C377.7,295.7,377.5,295.9,377.1,296z"/>
	<path fill="#B2B2B2" d="M397.5,296.1h-4.4c-0.3,0-0.4-0.3-0.6-0.6l-3.9-7.3l-0.3,0c-0.6,0-1.5-0.1-2.1-0.1v7.4
		c0,0.3-0.3,0.6-0.6,0.6h-3.8c-0.3,0-0.6-0.3-0.6-0.6V276c0-1,0.4-1.2,1.3-1.4c1.3-0.2,3.8-0.4,5.9-0.4c4.9,0,8.7,1.7,8.7,6.8v0.4
		c0,3.1-1.6,5-3.7,5.8l4.4,8.2c0.1,0.1,0.1,0.2,0.1,0.3C398,295.9,397.8,296.1,397.5,296.1z M392.3,281.1c0-1.8-1.4-2.6-3.8-2.6
		c-0.4,0-1.9,0.1-2.3,0.1v5.6c0.3,0,1.7,0.1,2.1,0.1c3,0,4-0.8,4-2.8V281.1z"/>
	<path fill="#B2B2B2" d="M406.7,296.4c-2.3,0-4-0.3-5.5-0.6c-0.3-0.1-0.6-0.3-0.6-0.6v-2.8c0-0.4,0.2-0.5,0.5-0.5c0,0,0.1,0,0.1,0
		c1.2,0.1,4.4,0.3,5.5,0.3c2,0,2.6-0.6,2.6-2c0-0.8-0.4-1.3-1.9-2.2l-4-2.4c-2.7-1.6-3.4-3.4-3.4-5.5c0-3.2,1.8-5.7,7.4-5.7
		c2.1,0,5,0.3,6.2,0.6c0.2,0.1,0.4,0.2,0.4,0.5v2.9c0,0.3-0.1,0.5-0.5,0.5c0,0,0,0-0.1,0c-0.8-0.1-4.2-0.3-6.1-0.3
		c-1.7,0-2.3,0.5-2.3,1.5c0,0.8,0.4,1.2,1.9,2l3.7,2c3,1.6,3.9,3.5,3.9,5.9C414.6,293.1,412.6,296.4,406.7,296.4z"/>
	<path fill="#B2B2B2" d="M422.3,296.1h-3.9c-0.3,0-0.5-0.3-0.5-0.6v-20.4c0-0.3,0.2-0.6,0.5-0.6h3.9c0.3,0,0.6,0.2,0.6,0.6v20.4
		C422.8,295.8,422.6,296.1,422.3,296.1z"/>
	<path fill="#B2B2B2" d="M440.6,278.6h-4.7v16.9c0,0.3-0.3,0.6-0.6,0.6h-3.8c-0.3,0-0.6-0.3-0.6-0.6v-16.9h-4.7
		c-0.3,0-0.6-0.2-0.6-0.6v-3c0-0.3,0.3-0.6,0.6-0.6h14.4c0.3,0,0.6,0.2,0.6,0.6v3C441.2,278.4,440.9,278.6,440.6,278.6z"/>
	<path fill="#B2B2B2" d="M460,275.2l-4.4,10c-0.6,1.3-1.2,1.9-1.9,2.2v8.1c0,0.3-0.3,0.6-0.6,0.6h-3.8c-0.3,0-0.6-0.3-0.6-0.6v-8.1
		c-0.7-0.3-1.3-0.9-1.9-2.2l-4.4-10c0-0.1,0-0.1,0-0.2c0-0.2,0.2-0.4,0.5-0.4h4.2c0.3,0,0.5,0.2,0.6,0.5l3.1,8.2
		c0.1,0.4,0.2,0.4,0.4,0.4c0.2,0,0.3-0.1,0.4-0.4l3.1-8.2c0.1-0.3,0.3-0.5,0.6-0.5h4.2c0.3,0,0.5,0.2,0.5,0.4
		C460.1,275,460.1,275.1,460,275.2z"/>
	<path fill="#B2B2B2" d="M486.6,296.1h-4.1c-0.3,0-0.5-0.2-0.6-0.5l-1-4.8h-5.9l-1,4.8c-0.1,0.3-0.3,0.5-0.6,0.5h-4.1
		c-0.3,0-0.5-0.2-0.5-0.5c0,0,0-0.1,0-0.1l4.3-18c0.7-2.8,2.8-3.2,4.8-3.2c2,0,4.1,0.4,4.8,3.2l4.3,18c0,0.1,0,0.1,0,0.1
		C487.1,295.9,486.9,296.1,486.6,296.1z M478.3,278.8c-0.1-0.3-0.1-0.4-0.4-0.4c-0.3,0-0.3,0.1-0.4,0.4l-1.8,8h4.3L478.3,278.8z"/>
	<path fill="#B2B2B2" d="M495.5,296.4c-2.3,0-4-0.3-5.5-0.6c-0.3-0.1-0.6-0.3-0.6-0.6v-2.8c0-0.4,0.2-0.5,0.5-0.5c0,0,0.1,0,0.1,0
		c1.2,0.1,4.4,0.3,5.5,0.3c2,0,2.6-0.6,2.6-2c0-0.8-0.4-1.3-1.9-2.2l-4-2.4c-2.7-1.6-3.4-3.4-3.4-5.5c0-3.2,1.8-5.7,7.4-5.7
		c2.1,0,5,0.3,6.2,0.6c0.2,0.1,0.4,0.2,0.4,0.5v2.9c0,0.3-0.1,0.5-0.5,0.5c0,0,0,0-0.1,0c-0.8-0.1-4.2-0.3-6.2-0.3
		c-1.7,0-2.3,0.5-2.3,1.5c0,0.8,0.4,1.2,1.9,2l3.7,2c3,1.6,3.9,3.5,3.9,5.9C503.5,293.1,501.4,296.4,495.5,296.4z"/>
	<path fill="#B2B2B2" d="M512.6,296.4c-2.3,0-4-0.3-5.5-0.6c-0.3-0.1-0.6-0.3-0.6-0.6v-2.8c0-0.4,0.2-0.5,0.5-0.5c0,0,0.1,0,0.1,0
		c1.2,0.1,4.4,0.3,5.5,0.3c2,0,2.6-0.6,2.6-2c0-0.8-0.4-1.3-1.9-2.2l-4-2.4c-2.7-1.6-3.4-3.4-3.4-5.5c0-3.2,1.8-5.7,7.4-5.7
		c2.1,0,5,0.3,6.2,0.6c0.2,0.1,0.4,0.2,0.4,0.5v2.9c0,0.3-0.1,0.5-0.5,0.5c0,0,0,0-0.1,0c-0.8-0.1-4.2-0.3-6.2-0.3
		c-1.7,0-2.3,0.5-2.3,1.5c0,0.8,0.4,1.2,1.9,2l3.7,2c3,1.6,3.9,3.5,3.9,5.9C520.5,293.1,518.5,296.4,512.6,296.4z"/>
	<path fill="#B2B2B2" d="M531.9,296.4c-4.8,0-8.6-2.6-8.6-9.3v-3.5c0-6.7,3.8-9.3,8.6-9.3c4.8,0,8.6,2.6,8.6,9.3v3.5
		C540.5,293.8,536.7,296.4,531.9,296.4z M535.5,283.6c0-3.5-1.2-5-3.6-5c-2.4,0-3.6,1.5-3.6,5v3.5c0,3.5,1.1,5,3.6,5
		c2.4,0,3.6-1.5,3.6-5V283.6z"/>
	<path fill="#B2B2B2" d="M556.4,295.9c-0.6,0.2-2.3,0.5-4.3,0.5c-4.4,0-8.6-2.3-8.6-9.2v-3.7c0-6.9,4.2-9.2,8.6-9.2
		c2,0,3.7,0.3,4.3,0.5c0.4,0.1,0.6,0.2,0.6,0.6v2.8c0,0.3-0.2,0.6-0.5,0.6c0,0-0.1,0-0.1,0c-1.1-0.1-2.7-0.2-4.3-0.2
		c-2,0-3.6,1-3.6,4.9v3.7c0,3.9,1.6,4.9,3.6,4.9c1.6,0,3.2-0.1,4.3-0.2c0,0,0.1,0,0.1,0c0.4,0,0.5,0.2,0.5,0.6v2.8
		C557.1,295.6,556.9,295.7,556.4,295.9z"/>
	<path fill="#B2B2B2" d="M564.7,296.1h-3.9c-0.3,0-0.5-0.3-0.5-0.6v-20.4c0-0.3,0.2-0.6,0.5-0.6h3.9c0.3,0,0.6,0.2,0.6,0.6v20.4
		C565.3,295.8,565,296.1,564.7,296.1z"/>
	<path fill="#B2B2B2" d="M585.7,296.1h-4.1c-0.3,0-0.5-0.2-0.6-0.5l-1-4.8H574l-1,4.8c-0.1,0.3-0.3,0.5-0.6,0.5h-4.1
		c-0.3,0-0.5-0.2-0.5-0.5c0,0,0-0.1,0-0.1l4.3-18c0.7-2.8,2.8-3.2,4.8-3.2c2,0,4.1,0.4,4.8,3.2l4.3,18c0,0.1,0,0.1,0,0.1
		C586.2,295.9,586,296.1,585.7,296.1z M577.4,278.8c-0.1-0.3-0.1-0.4-0.4-0.4c-0.3,0-0.3,0.1-0.4,0.4l-1.8,8h4.3L577.4,278.8z"/>
	<path fill="#B2B2B2" d="M600.4,278.6h-4.7v16.9c0,0.3-0.3,0.6-0.6,0.6h-3.8c-0.3,0-0.6-0.3-0.6-0.6v-16.9H586
		c-0.3,0-0.6-0.2-0.6-0.6v-3c0-0.3,0.3-0.6,0.6-0.6h14.4c0.3,0,0.6,0.2,0.6,0.6v3C601,278.4,600.7,278.6,600.4,278.6z"/>
	<path fill="#B2B2B2" d="M608.1,296.1h-3.9c-0.3,0-0.5-0.3-0.5-0.6v-20.4c0-0.3,0.2-0.6,0.5-0.6h3.9c0.3,0,0.6,0.2,0.6,0.6v20.4
		C608.7,295.8,608.5,296.1,608.1,296.1z"/>
	<path fill="#B2B2B2" d="M620.9,296.4c-4.8,0-8.6-2.6-8.6-9.3v-3.5c0-6.7,3.8-9.3,8.6-9.3c4.8,0,8.6,2.6,8.6,9.3v3.5
		C629.4,293.8,625.6,296.4,620.9,296.4z M624.5,283.6c0-3.5-1.2-5-3.6-5s-3.6,1.5-3.6,5v3.5c0,3.5,1.1,5,3.6,5s3.6-1.5,3.6-5V283.6z
		"/>
	<path fill="#B2B2B2" d="M649,296.1h-2.8c-0.6,0-1-0.1-1.5-0.9l-6.6-11.4c-0.1-0.2-0.2-0.2-0.3-0.2c-0.1,0-0.1,0.1-0.1,0.2v11.7
		c0,0.3-0.3,0.6-0.6,0.6h-3.4c-0.3,0-0.6-0.3-0.6-0.6v-19.9c0-0.6,0.5-1.1,1.1-1.1h2.9c0.6,0,0.9,0.3,1.2,0.9l6.9,12
		c0.1,0.2,0.1,0.2,0.2,0.2c0.1,0,0.1-0.1,0.1-0.3v-12.3c0-0.3,0.3-0.6,0.6-0.6h3.4c0.3,0,0.6,0.2,0.6,0.6V295
		C650.1,295.6,649.6,296.1,649,296.1z"/>
</g>
</svg>
